<svg xmlns="http://www.w3.org/2000/svg" xmlns:xlink="http://www.w3.org/1999/xlink" viewBox="0 0 516.11 100"><defs><style>.cls-1{fill:url(#linear-gradient);}.cls-2{fill:url(#linear-gradient-2);}.cls-3{fill:url(#linear-gradient-3);}.cls-4{fill:url(#linear-gradient-4);}.cls-5{fill:url(#linear-gradient-5);}.cls-6{fill:url(#linear-gradient-6);}.cls-7{fill:url(#linear-gradient-7);}.cls-8{fill:url(#linear-gradient-8);}.cls-9{fill:url(#linear-gradient-9);}.cls-10{fill:url(#linear-gradient-10);}.cls-11{fill:url(#linear-gradient-11);}.cls-12{fill:url(#linear-gradient-12);}.cls-13{fill:url(#linear-gradient-13);}.cls-14{fill:url(#linear-gradient-14);}.cls-15{fill:url(#linear-gradient-15);}</style><linearGradient id="linear-gradient" x1="134.93" y1="6.56" x2="134.93" y2="86.91" gradientUnits="userSpaceOnUse"><stop offset="0" stop-color="#939598"/><stop offset="1" stop-color="#f1f2f2"/></linearGradient><linearGradient id="linear-gradient-2" x1="177.35" y1="6.56" x2="177.35" y2="86.91" xlink:href="#linear-gradient"/><linearGradient id="linear-gradient-3" x1="218.91" y1="6.56" x2="218.91" y2="86.91" xlink:href="#linear-gradient"/><linearGradient id="linear-gradient-4" x1="247.94" y1="6.56" x2="247.94" y2="86.91" xlink:href="#linear-gradient"/><linearGradient id="linear-gradient-5" x1="281.16" y1="3.56" x2="281.16" y2="95.44" gradientUnits="userSpaceOnUse"><stop offset="0" stop-color="#00f9ef"/><stop offset="0.64" stop-color="#00aeef"/><stop offset="1" stop-color="#2e3192"/></linearGradient><linearGradient id="linear-gradient-6" x1="318.48" y1="3.56" x2="318.48" y2="95.44" xlink:href="#linear-gradient-5"/><linearGradient id="linear-gradient-7" x1="351.86" y1="3.56" x2="351.86" y2="95.44" xlink:href="#linear-gradient-5"/><linearGradient id="linear-gradient-8" x1="396.09" y1="2.06" x2="396.09" y2="68.61" xlink:href="#linear-gradient"/><linearGradient id="linear-gradient-9" x1="444.73" y1="2.06" x2="444.73" y2="68.61" xlink:href="#linear-gradient"/><linearGradient id="linear-gradient-10" x1="493.89" y1="2.06" x2="493.89" y2="68.61" xlink:href="#linear-gradient"/><linearGradient id="linear-gradient-11" x1="10.24" y1="17.69" x2="66.84" y2="63.68" xlink:href="#linear-gradient-5"/><linearGradient id="linear-gradient-12" x1="71.25" y1="101.21" x2="40.29" y2="54.33" xlink:href="#linear-gradient-5"/><linearGradient id="linear-gradient-13" x1="78.05" y1="96.71" x2="47.1" y2="49.84" xlink:href="#linear-gradient-5"/><linearGradient id="linear-gradient-14" x1="80.18" y1="95.31" x2="49.23" y2="48.43" xlink:href="#linear-gradient-5"/><linearGradient id="linear-gradient-15" x1="65.13" y1="105.25" x2="34.17" y2="58.37" xlink:href="#linear-gradient-5"/></defs><g id="Layer_2" data-name="Layer 2"><g id="Layer_1-2" data-name="Layer 1"><path class="cls-1" d="M137.57,63.59H123.24V78.5h-9.55V27.83c8,0,15.92-.07,23.88-.07C162.33,27.76,162.4,63.59,137.57,63.59Zm-14.33-8.76h14.33c12.24,0,12.17-17.95,0-17.95H123.24Z"/><path class="cls-2" d="M195.92,60.7c0,10.28-7,18.6-18.6,18.6S158.79,71,158.79,60.7s7.09-18.61,18.46-18.61S195.92,50.49,195.92,60.7Zm-28.3,0c0,5.43,3.26,10.49,9.7,10.49S187,66.13,187,60.7s-3.77-10.57-9.7-10.57C171,50.13,167.62,55.34,167.62,60.7Z"/><path class="cls-3" d="M237.47,60.7c0,10.28-7,18.6-18.6,18.6S200.34,71,200.34,60.7s7.09-18.61,18.46-18.61S237.47,50.49,237.47,60.7Zm-28.3,0c0,5.43,3.26,10.49,9.7,10.49s9.7-5.06,9.7-10.49-3.76-10.57-9.7-10.57C212.5,50.13,209.17,55.34,209.17,60.7Z"/><path class="cls-4" d="M252.32,27.9V78.5h-8.76V27.9Z"/><path class="cls-5" d="M265.71,61V78.5H261.8V27.83H284c22,0,22,33.16,0,33.16Zm0-29.54v26H284c16.87,0,16.87-26,0-26Z"/><path class="cls-6" d="M310.3,42.74l.15,6.37c2.24-4.85,7.31-6.73,11.87-6.73a14,14,0,0,1,7.67,2.1l-1.59,2.9a11.48,11.48,0,0,0-6.08-1.67,11.88,11.88,0,0,0-11.8,11.95V78.5H307V42.74Z"/><path class="cls-7" d="M333.69,60.7c0-11.37,8.1-18.61,18.16-18.61S370,49.33,370,60.7,361.92,79,351.85,79,333.69,72.06,333.69,60.7Zm32.86,0c0-9.27-6.59-15.28-14.7-15.28s-14.69,6-14.69,15.28,6.59,14.84,14.69,14.84S366.55,70,366.55,60.7Z"/><path class="cls-8" d="M388.41,56.43V48.61h7.31c5.14,0,10.57-1.38,10.65-6.08,0-2.9-2.32-6.74-10.43-6.74-4.49,0-10.57,1.6-10.57,6.23h-9.55c0-10.93,10.86-14.91,20.19-14.91,9.56,0,19.84,4.63,19.91,15.42,0,4-2.6,8.61-7,10,4.85,1.59,8.25,6.37,8.25,10.64,0,12.38-11.65,16.07-21.43,16.07-9.62,0-20.63-4.06-20.7-15.57h9.63c0,5.22,7,7,11.15,7,4.85,0,11.29-2,11.29-7.46,0-3-1.67-6.8-10.79-6.8Z"/><path class="cls-9" d="M433.15,43.4V51c2.25-3.48,7.75-5.36,11.73-5.36,10.21,0,20.92,4.27,20.92,16.87,0,11.22-10.79,16.79-21,16.79-10.35,0-21.14-5.57-21.14-16.94V43.47c0-11.29,10.42-16.58,20.85-16.58,11,0,20.77,4.34,20.77,15h-9.55c0-4.49-5.65-6.74-11.08-6.74-5.72-.07-11.51,3-11.51,8.55Zm23.17,19.11c0-5.58-5.07-8.55-11.44-8.55s-11.8,2.9-11.73,8.55,5.43,8.25,11.66,8.25C450.82,70.76,456.32,68.08,456.32,62.51Z"/><path class="cls-10" d="M471.67,49.48c0-30.26,44.44-30.19,44.44,0v7.31c0,30.18-44.44,30.26-44.44,0Zm9.48,7.31c0,18.38,25.48,18.38,25.48,0V49.48c0-18.1-25.48-18.32-25.48,0Z"/><path class="cls-11" d="M50,0A50,50,0,0,0,25.69,93.67V88.24h0V58.06H35.76a16.52,16.52,0,1,0-.7-15.64H26.8a24.25,24.25,0,1,1,6.84,25.1V77.73A32.52,32.52,0,1,0,17.56,46.55h4.38v0H37.5v0h4.79a8.24,8.24,0,1,1,.34,6.84H33.85s0,0,0,0H25.7v0H17.53V76.94a42.09,42.09,0,1,1,16.11,12v8.32A50,50,0,1,0,50,0Z"/><path class="cls-12" d="M22.17,45.56H37.26a1,1,0,0,1,.24,0h4.13a9.15,9.15,0,0,1,5.48-4.75,60.2,60.2,0,0,0-7.93-2.33A15.31,15.31,0,0,0,36,42.86a1,1,0,0,1-.92.58H26.8a1,1,0,0,1-1-1.32,25.14,25.14,0,0,1,2.08-4.87h-.28a58.23,58.23,0,0,0-6.83.46,31.14,31.14,0,0,0-2.1,7.82h3.24A.85.85,0,0,1,22.17,45.56Z"/><path class="cls-13" d="M34.66,69.7v7.43A31.46,31.46,0,0,0,81,55a43.13,43.13,0,0,1-6-1.68A25.25,25.25,0,0,1,34.66,69.7Z"/><path class="cls-14" d="M92.92,55.12A43.28,43.28,0,0,1,50,93.24a42.82,42.82,0,0,1-15.34-2.82v6.09A49,49,0,0,0,98.85,53.44,33.28,33.28,0,0,1,92.92,55.12Z"/><path class="cls-15" d="M36.64,57.54A15.5,15.5,0,0,0,65.46,49.6c0-.12,0-.24,0-.36-2.34-1.14-4.7-2.35-7.11-3.53A9.26,9.26,0,0,1,42,54.41H34.16a1.35,1.35,0,0,1-.29,0H25.7a1.26,1.26,0,0,1-.28,0H18.55V76.94a1,1,0,0,1-.67,1,1.07,1.07,0,0,1-.35.06,1,1,0,0,1-.78-.37,43.17,43.17,0,0,1-9.1-36.34,38.72,38.72,0,0,0-6.36,3.59A49,49,0,0,0,24.67,91.9V88.24a1.09,1.09,0,0,1,0-.18v-30a1,1,0,0,1,1-1H35.76A1,1,0,0,1,36.64,57.54Z"/></g></g></svg>